<svg height="496pt" viewBox="-80 0 496 496" width="496pt" xmlns="http://www.w3.org/2000/svg"><path d="m8 344v32h32c61.855469 0 112 50.144531 112 112h32c0-61.855469 50.144531-112 112-112h32v-32zm0 0" fill="#b64f86"/><path d="m192.367188 344h-184.367188v32h32c28.871094 0 55.105469 11.015625 74.96875 28.960938 29.070312-13.832032 55.3125-34.714844 77.398438-60.960938zm0 0" fill="#e087a6"/><path d="m198.855469 301.945312c16.609375 6.640626 34.335937 10.054688 52.222656 10.054688h12.921875c35.34375 0 64-19.816406 64-64 0-37.28125-20.398438-79.992188-48-92.433594v-131.566406c0-8.839844-7.160156-16-16-16s-16 7.160156-16 16v90.710938c0 29.609374-8.214844 58.640624-23.734375 83.855468l-31.882813 51.808594c-5.207031 8.464844-14.4375 13.625-24.382812 13.625s-19.175781-5.160156-24.382812-13.625l-31.882813-51.808594c-15.519531-25.214844-23.734375-54.246094-23.734375-83.855468v-90.710938c0-8.839844-7.160156-16-16-16s-16 7.160156-16 16v131.566406c-27.601562 12.449219-48 55.152344-48 92.433594 0 44.183594 28.65625 64 64 64h12.921875c17.886719 0 35.613281-3.414062 52.222656-10.054688 9.816407-3.929687 20.289063-5.945312 30.855469-5.945312s21.039062 2.015625 30.855469 5.945312zm0 0" fill="#b64f86"/><path d="m248 30.921875v83.789063c0 29.609374-8.214844 58.640624-23.734375 83.855468l-31.882813 51.808594c-5.207031 8.464844-14.4375 13.625-24.382812 13.625s-19.175781-5.160156-24.382812-13.625l-31.882813-51.808594c-15.519531-25.214844-23.734375-54.246094-23.734375-83.855468v-90.710938c0-8.839844-7.160156-16-16-16s-16 7.160156-16 16v131.566406c-27.601562 12.441406-48 55.152344-48 92.433594 0 44.183594 28.65625 64 64 64h12.921875c17.886719 0 35.613281-3.414062 52.222656-10.054688 9.816407-3.929687 20.289063-5.945312 30.855469-5.945312s21.039062 2.015625 30.855469 5.945312c6.273437 2.511719 12.738281 4.398438 19.28125 5.984376 28.808593-47.992188 45.863281-107.480469 45.863281-171.929688 0-37.097656-5.710938-72.511719-16-105.078125zm0 0" fill="#e087a6"/><path d="m264 320h-12.921875c-18.988281 0-37.558594-3.574219-55.191406-10.625-17.808594-7.144531-37.957031-7.144531-55.765625 0-17.640625 7.050781-36.21875 10.625-55.199219 10.625h-12.921875c-44.40625 0-72-27.585938-72-72 0-35.519531 17.847656-80.257812 48-97.328125v-126.671875c0-13.230469 10.769531-24 24-24s24 10.769531 24 24v90.710938c0 28.152343 7.800781 55.695312 22.542969 79.664062l31.882812 51.808594c3.726563 6.046875 10.460938 9.816406 17.574219 9.816406s13.847656-3.769531 17.574219-9.824219l31.882812-51.808593c14.742188-23.960938 22.542969-51.511719 22.542969-79.65625v-90.710938c0-13.230469 10.769531-24 24-24s24 10.769531 24 24v126.671875c30.152344 17.070313 48 61.808594 48 97.328125 0 44.414062-27.59375 72-72 72zm-62.167969-25.488281c15.734375 6.304687 32.304688 9.488281 49.246094 9.488281h12.921875c16.832031 0 56-5.457031 56-56 0-35.566406-19.824219-74.550781-43.289062-85.136719-2.871094-1.296875-4.710938-4.144531-4.710938-7.296875v-131.566406c0-4.414062-3.59375-8-8-8s-8 3.585938-8 8v90.710938c0 31.113281-8.617188 61.5625-24.921875 88.058593l-31.878906 51.796875c-6.613281 10.753906-18.566407 17.433594-31.199219 17.433594s-24.585938-6.679688-31.199219-17.433594l-31.878906-51.804687c-16.304687-26.488281-24.921875-56.9375-24.921875-88.050781v-90.710938c0-4.414062-3.59375-8-8-8s-8 3.585938-8 8v131.566406c0 3.152344-1.839844 6-4.710938 7.296875-23.464843 10.585938-43.289062 49.570313-43.289062 85.136719 0 50.542969 39.167969 56 56 56h12.921875c16.941406 0 33.519531-3.183594 49.253906-9.488281 21.59375-8.640625 46.046875-8.640625 67.65625 0zm0 0"/><path d="m184 496h-32c-4.414062 0-8-3.574219-8-8 0-57.34375-46.65625-104-104-104h-32c-4.414062 0-8-3.574219-8-8v-32c0-4.425781 3.585938-8 8-8h320c4.414062 0 8 3.574219 8 8v32c0 4.425781-3.585938 8-8 8h-32c-57.34375 0-104 46.65625-104 104 0 4.425781-3.585938 8-8 8zm-24.265625-16h16.53125c4.132813-62.457031 56.253906-112 119.734375-112h24v-16h-304v16h24c63.480469 0 115.601562 49.542969 119.734375 112zm0 0"/></svg>