<svg height="512pt" viewBox="0 0 512 512" width="512pt" xmlns="http://www.w3.org/2000/svg"><path d="m311 183h-110c-8.285156 0-15-6.714844-15-15v-40c0-19.300781 15.699219-35 35-35h70c19.300781 0 35 15.699219 35 35v40c0 8.285156-6.714844 15-15 15zm0 0" fill="#47435c"/><path d="m291 93h-35v90h55c8.285156 0 15-6.714844 15-15v-40c0-19.300781-15.699219-35-35-35zm0 0" fill="#333042"/><path d="m376 393h-240c-24.8125 0-45-20.1875-45-45v-150c0-24.8125 20.1875-45 45-45h240c24.8125 0 45 20.1875 45 45v150c0 24.8125-20.1875 45-45 45zm0 0" fill="#55506e"/><path d="m376 153h-120v240h120c24.8125 0 45-20.1875 45-45v-150c0-24.8125-20.1875-45-45-45zm0 0" fill="#47435c"/><path d="m256 348c-41.355469 0-75-33.644531-75-75s33.644531-75 75-75 75 33.644531 75 75-33.644531 75-75 75zm0 0" fill="#d7f0f5"/><path d="m331 273c0-41.355469-33.644531-75-75-75v150c41.355469 0 75-33.644531 75-75zm0 0" fill="#c3e1eb"/><path d="m256 228c-24.8125 0-45 20.1875-45 45s20.1875 45 45 45 45-20.1875 45-45-20.1875-45-45-45zm0 0" fill="#82d6ff"/><path d="m301 273c0-24.8125-20.1875-45-45-45v90c24.8125 0 45-20.1875 45-45zm0 0" fill="#58c1ff"/><path d="m437.019531 74.980469c-48.351562-48.351563-112.640625-74.980469-181.019531-74.980469s-132.667969 26.628906-181.019531 74.980469c-48.351563 48.351562-74.980469 112.640625-74.980469 181.019531s26.628906 132.667969 74.980469 181.019531c48.351562 48.351563 112.640625 74.980469 181.019531 74.980469s132.667969-26.628906 181.019531-74.980469c48.351563-48.351562 74.980469-112.640625 74.980469-181.019531s-26.628906-132.667969-74.980469-181.019531zm-407.019531 181.019531c0-60.367188 23.507812-117.121094 66.195312-159.804688 42.683594-42.6875 99.4375-66.195312 159.804688-66.195312 55.339844 0 107.632812 19.769531 148.84375 55.941406l-318.902344 318.902344c-36.171875-41.210938-55.941406-93.503906-55.941406-148.84375zm385.804688 159.804688c-42.683594 42.6875-99.4375 66.195312-159.804688 66.195312-55.339844 0-107.632812-19.769531-148.84375-55.941406l318.902344-318.902344c36.171875 41.210938 55.941406 93.503906 55.941406 148.84375 0 60.367188-23.507812 117.121094-66.195312 159.804688zm0 0" fill="#ff5b33"/><path d="m256 0v30c55.339844 0 107.632812 19.769531 148.84375 55.941406l-148.84375 148.84375v42.429688l170.058594-170.058594c36.171875 41.210938 55.941406 93.503906 55.941406 148.84375 0 60.367188-23.507812 117.121094-66.195312 159.804688-42.683594 42.6875-99.4375 66.195312-159.804688 66.195312v30c68.378906 0 132.667969-26.628906 181.019531-74.980469 48.351563-48.351562 74.980469-112.640625 74.980469-181.019531s-26.628906-132.667969-74.980469-181.019531c-48.351562-48.351563-112.640625-74.980469-181.019531-74.980469zm0 0" fill="#e34100"/></svg>