<?xml version="1.0"?>
<svg xmlns="http://www.w3.org/2000/svg" height="512px" viewBox="0 0 512 512" width="512px" class=""><g><g fill-rule="evenodd"><path d="m50 256c0-113.769531 92.230469-206 206-206 49.683594 0 95.257812 17.589844 130.835938 46.878906l-289.957032 289.957032c-29.289062-35.578126-46.878906-81.152344-46.878906-130.835938zm75.164062 159.121094c35.578126 29.289062 81.152344 46.878906 130.835938 46.878906 113.769531 0 206-92.230469 206-206 0-49.683594-17.589844-95.253906-46.878906-130.835938l-61.792969 61.792969-32.496094 32.492188-30.289062 30.292969zm-43.113281 14.828125.367188.359375c44.488281 44.300781 105.835937 71.691406 173.582031 71.691406 135.863281 0 246-110.136719 246-246s-110.136719-246-246-246-246 110.136719-246 246c0 67.929688 27.535156 129.429688 72.050781 173.949219zm0 0" fill="#ff755b" data-original="#FF755B" class="active-path" style="fill:#FF0200" data-old_color="#FF3800"/><path d="m256 50c-113.769531 0-206 92.230469-206 206 0 49.683594 17.589844 95.257812 46.878906 130.835938l80.574219-80.574219c6.304687-31.589844 31.191406-56.472657 62.78125-62.78125l146.601563-146.601563c-35.578126-29.289062-81.152344-46.878906-130.835938-46.878906zm-103.566406 139.414062c11.851562-6.84375 27.5625-1.816406 35.089844 11.226563 7.53125 13.046875 4.03125 29.164063-7.816407 36.007813-11.851562 6.839843-27.5625 1.8125-35.09375-11.230469s-4.027343-29.164063 7.820313-36.003907zm103.566406-33.414062c13.683594 0 24.773438 12.210938 24.773438 27.269531 0 15.0625-11.089844 27.273438-24.773438 27.273438s-24.773438-12.210938-24.773438-27.273438c0-15.058593 11.089844-27.269531 24.773438-27.269531zm0 0" fill="#eef2f2" data-original="#EEF2F2" class=""/><path d="m187.519531 200.636719c-7.53125-13.042969-23.242187-18.070313-35.089843-11.230469-11.847657 6.84375-15.351563 22.960938-7.820313 36.003906 7.53125 13.042969 23.242187 18.074219 35.089844 11.230469 11.851562-6.839844 15.351562-22.960937 7.820312-36.003906zm0 0" fill="#c58965" data-original="#C58965"/><path d="m280.773438 183.269531c0-15.058593-11.089844-27.269531-24.773438-27.269531s-24.773438 12.210938-24.773438 27.269531c0 15.0625 11.089844 27.269531 24.773438 27.269531s24.773438-12.207031 24.773438-27.269531zm0 0" fill="#c58965" data-original="#C58965"/><path d="m353.328125 186.957031-32.492187 32.492188c1.117187 7.136719 5.078124 13.515625 11.457031 17.199219 11.851562 6.839843 27.5625 1.8125 35.09375-11.230469s4.027343-29.164063-7.820313-36.003907c-1.988281-1.148437-4.085937-1.960937-6.238281-2.457031zm0 0" fill="#c58965" data-original="#C58965"/><path d="m367.386719 225.417969c-7.53125 13.042969-23.242188 18.070312-35.089844 11.230469-6.382813-3.6875-10.339844-10.0625-11.460937-17.199219l-30.292969 30.289062c26.949219 12.902344 45.5625 40.421875 45.5625 72.289063 0 44.238281-35.863281 32.582031-80.105469 32.582031-28.101562 0-52.820312 4.699219-67.117188-3.207031l-63.71875 63.71875c35.582032 29.289062 81.152344 46.878906 130.835938 46.878906 113.769531 0 206-92.230469 206-206 0-49.683594-17.589844-95.257812-46.878906-130.835938l-61.792969 61.789063c2.152344.5 4.25 1.3125 6.238281 2.460937 11.847656 6.839844 15.351563 22.960938 7.820313 36.003907zm0 0" fill="#eef2f2" data-original="#EEF2F2" class=""/><path d="m336.101562 322.027344c0-31.867188-18.609374-59.386719-45.558593-72.289063l-101.660157 101.664063c14.296876 7.90625 39.015626 3.207031 67.117188 3.207031 44.238281 0 80.101562 11.65625 80.101562-32.582031zm0 0" fill="#c58965" data-original="#C58965"/><path d="m177.453125 306.261719 62.78125-62.777344c-31.589844 6.304687-56.472656 31.1875-62.78125 62.777344zm0 0" fill="#c58965" data-original="#C58965"/></g><path d="m421.613281 378.925781c4.582031 3.074219 10.796875 1.851563 13.875-2.734375 23.886719-35.601562 36.511719-77.164062 36.511719-120.191406 0-49.957031-17.457031-98.679688-49.160156-137.191406-1.789063-2.175782-4.417969-3.496094-7.234375-3.632813-2.835938-.136719-5.5625.921875-7.554688 2.917969l-289.957031 289.953125c-1.996094 1.996094-3.054688 4.738281-2.917969 7.554687.136719 2.816407 1.453125 5.445313 3.632813 7.238282 38.511718 31.703125 87.230468 49.160156 137.191406 49.160156 43.027344 0 84.585938-12.625 120.1875-36.507812 4.585938-3.078126 5.808594-9.289063 2.730469-13.875-3.074219-4.585938-9.289063-5.808594-13.875-2.734376-32.289063 21.664063-69.996094 33.117188-109.042969 33.117188-41.636719 0-82.324219-13.359375-115.75-37.824219l50.980469-50.980469c6.839843 2.152344 14.605469 2.800782 23.121093 2.800782 5.96875 0 12.304688-.316406 18.949219-.648438 7.316407-.359375 14.882813-.738281 22.699219-.738281 7.820312 0 15.390625.378906 22.707031.742187 23.125 1.152344 43.097657 2.144532 55.949219-10.082031 7.699219-7.328125 11.445312-18.203125 11.445312-33.242187 0-29.851563-15.074218-57.765625-39.308593-74.394532l10.835937-10.839843c2.617188 3.425781 5.878906 6.328125 9.664063 8.511719 5.148437 2.972656 10.796875 4.382812 16.453125 4.382812 12.59375-.003906 25.207031-6.988281 32.296875-19.269531 9.085937-15.738281 6.105469-34.976563-6.1875-45.847657l44.320312-44.324218c24.460938 33.429687 37.824219 74.113281 37.824219 115.75 0 39.046875-11.453125 76.757812-33.121094 109.050781-3.074218 4.589844-1.855468 10.800781 2.734375 13.878906zm-95.511719-56.898437c0 9.140625-1.757812 15.449218-5.230468 18.753906-6.640625 6.3125-22.640625 5.519531-41.164063 4.597656-7.566406-.378906-15.386719-.765625-23.707031-.765625-8.3125 0-16.132812.386719-23.691406.761719-8.765625.4375-16.882813.832031-23.742188.488281l83.777344-83.777343c20.703125 12.609374 33.757812 35.4375 33.757812 59.941406zm32.625-101.609375c-4.761718 8.246093-14.375 11.640625-21.433593 7.566406-2.265625-1.308594-4.035157-3.253906-5.203125-5.648437l23.554687-23.554688c6.148438 4.4375 7.589844 13.828125 3.082031 21.636719zm0 0" data-original="#000000" class="" style="fill:#000000"/><path d="m393.191406 89.160156c-38.507812-31.703125-87.230468-49.160156-137.191406-49.160156-57.695312 0-111.9375 22.46875-152.734375 63.265625s-63.265625 95.039063-63.265625 152.734375c0 49.960938 17.457031 98.683594 49.160156 137.191406 1.792969 2.175782 4.417969 3.496094 7.234375 3.632813.164063.007812.324219.011719.484375.011719 2.644532 0 5.191406-1.050782 7.070313-2.929688l143.378906-143.378906c.007813-.007813.011719-.011719.015625-.015625l146.5625-146.5625c1.992188-1.992188 3.054688-4.734375 2.917969-7.554688-.136719-2.8125-1.453125-5.441406-3.632813-7.234375zm-137.191406 111.382813c-8.148438 0-14.773438-7.75-14.773438-17.273438 0-9.519531 6.625-17.269531 14.773438-17.269531s14.773438 7.75 14.773438 17.269531c0 9.523438-6.625 17.273438-14.773438 17.273438zm34.542969-21.511719c-1.972657-18.5625-16.707031-33.03125-34.542969-33.03125-19.175781 0-34.773438 16.71875-34.773438 37.269531 0 18.230469 12.28125 33.4375 28.4375 36.636719l-14.433593 14.433594c-33.277344 7.832031-59.085938 33.640625-66.917969 66.917968l-70.488281 70.492188c-24.464844-33.425781-37.824219-74.109375-37.824219-115.75 0-108.074219 87.925781-196 196-196 41.640625 0 82.324219 13.359375 115.75 37.820312zm0 0" data-original="#000000" class="" style="fill:#000000"/><path d="m437.019531 74.980469c-48.351562-48.351563-112.640625-74.980469-181.019531-74.980469-53.925781 0-105.515625 16.582031-149.191406 47.957031-4.484375 3.222657-5.511719 9.472657-2.289063 13.957031 3.222657 4.484376 9.472657 5.511719 13.957031 2.285157 40.253907-28.914063 87.808594-44.199219 137.523438-44.199219 130.128906 0 236 105.867188 236 236 0 130.128906-105.871094 236-236 236-62.847656 0-121.988281-24.425781-166.507812-68.765625l-.371094-.359375c-44.574219-44.574219-69.121094-103.835938-69.121094-166.875 0-49.71875 15.28125-97.269531 44.195312-137.515625 3.222657-4.488281 2.199219-10.734375-2.285156-13.957031-4.488281-3.222656-10.734375-2.199219-13.957031 2.285156-31.371094 43.671875-47.953125 95.257812-47.953125 149.1875 0 68.378906 26.628906 132.667969 74.980469 181.019531l.382812.375c48.3125 48.109375 112.460938 74.605469 180.636719 74.605469 68.378906 0 132.667969-26.628906 181.019531-74.980469 48.351563-48.351562 74.980469-112.640625 74.980469-181.019531s-26.628906-132.667969-74.980469-181.019531zm0 0" data-original="#000000" class="" style="fill:#000000"/><path d="m147.433594 180.753906c-16.605469 9.585938-21.753906 31.867188-11.480469 49.664063 7.09375 12.28125 19.707031 19.269531 32.300781 19.269531 5.65625 0 11.308594-1.410156 16.453125-4.378906 16.605469-9.589844 21.753907-31.867188 11.480469-49.667969-10.277344-17.796875-32.148438-24.476563-48.753906-14.886719zm27.273437 47.234375c-7.058593 4.074219-16.671875.675781-21.433593-7.570312-4.761719-8.246094-2.894532-18.269531 4.160156-22.34375 7.058594-4.070313 16.667968-.679688 21.433594 7.566406 4.757812 8.25 2.894531 18.273437-4.160157 22.347656zm0 0" data-original="#000000" class="" style="fill:#000000"/><path d="m82.046875 92.050781c2.5625 0 5.121094-.976562 7.074219-2.929687 3.90625-3.902344 3.90625-10.234375 0-14.140625s-10.234375-3.90625-14.140625 0l-.003907.003906c-3.90625 3.90625-3.902343 10.234375 0 14.140625 1.953126 1.953125 4.511719 2.925781 7.070313 2.925781zm0 0" data-original="#000000" class="" style="fill:#000000"/><path d="m394.59375 394.59375-.007812.003906c-3.902344 3.90625-3.902344 10.234375.003906 14.140625 1.953125 1.949219 4.511718 2.925781 7.070312 2.925781s5.121094-.976562 7.074219-2.929687c3.90625-3.902344 3.90625-10.234375 0-14.140625s-10.234375-3.90625-14.140625 0zm0 0" data-original="#000000" class="" style="fill:#000000"/></g> </svg>
