<?xml version="1.0" encoding="iso-8859-1"?>
<!-- Generator: Adobe Illustrator 19.0.0, SVG Export Plug-In . SVG Version: 6.00 Build 0)  -->
<svg version="1.1" id="Capa_1" xmlns="http://www.w3.org/2000/svg" xmlns:xlink="http://www.w3.org/1999/xlink" x="0px" y="0px"
	 viewBox="0 0 512 512" style="enable-background:new 0 0 512 512;" xml:space="preserve">
<path style="fill:#8CCEEA;" d="M177.282,319.842c25.518,37.772,68.733,62.605,117.749,62.605c78.427,0,142-63.573,142-142
	c0-29.721-9.137-57.305-24.745-80.108l50.069-50.069v44.23H502V36.521H384v39.631h44.591l-49.701,49.701
	c-23.5-17.226-52.488-27.405-83.859-27.405c-7.449,0-14.764,0.573-21.903,1.679l-46.716,15.97
	c-43.754,24.195-73.381,70.812-73.381,124.351c0,13.072,1.766,25.73,5.073,37.751L177.282,319.842z"/>
<circle style="fill:#FFFFFF;" cx="295.03" cy="240.37" r="99.96"/>
<path style="fill:#F25353;" d="M294,179.479c0-78.427-63.573-142-142-142s-142,63.573-142,142c0,70.245,51.005,128.566,118,139.971
	v78.03H88v44h40v34h48v-34h40v-44h-40v-78.03C242.995,308.044,294,249.724,294,179.479z M52,179.479c0-55.23,44.77-100,100-100
	s100,44.77,100,100s-44.77,100-100,100S52,234.709,52,179.479z"/>
<path d="M295.028,330.443c-5.523,0-10,4.523-10,10.046s4.477,10,10,10s10-4.477,10-10v-0.092
	C305.028,334.875,300.551,330.443,295.028,330.443z"/>
<path d="M502,26.521H384c-5.523,0-10,4.477-10,10v39.631c0,5.523,4.477,10,10,10h20.449l-26.737,26.737
	c-24.622-16.018-53.028-24.441-82.681-24.441c-6.812,0-13.642,0.483-20.364,1.383C246.986,52.057,202.313,27.479,152,27.479
	c-83.813,0-152,68.187-152,152c0,36.104,12.879,71.098,36.266,98.537c21.271,24.957,50.046,42.372,81.734,49.631v59.832H88
	c-5.523,0-10,4.477-10,10v44c0,5.523,4.477,10,10,10h30v24c0,5.523,4.477,10,10,10h48c5.523,0,10-4.477,10-10v-24h30
	c5.523,0,10-4.477,10-10v-44c0-5.523-4.477-10-10-10h-30v-41.13c28.381,29.227,67.538,46.099,109.031,46.099
	c83.813,0,152-68.187,152-152c0-27.982-7.571-55.032-21.968-78.743l27.292-27.292V154.5c0,5.523,4.477,10,10,10H502
	c5.523,0,10-4.477,10-10V36.521C512,30.998,507.523,26.521,502,26.521z M206,407.479v24h-30c-5.523,0-10,4.477-10,10v24h-28v-24
	c0-5.523-4.477-10-10-10H98v-24h30c5.523,0,10-4.477,10-10v-78.03c0-4.875-3.516-9.04-8.322-9.858
	C66.126,298.772,20,244.052,20,179.479c0-72.785,59.215-132,132-132s132,59.215,132,132c0,64.574-46.126,119.294-109.678,130.112
	c-4.806,0.818-8.322,4.983-8.322,9.858v78.03c0,5.523,4.477,10,10,10H206z M492,144.5h-19.645v-34.229
	c0-4.044-2.437-7.691-6.173-9.239c-3.737-1.548-8.038-0.692-10.898,2.167l-50.069,50.069c-3.403,3.403-3.899,8.748-1.181,12.72
	c15.045,21.979,22.998,47.727,22.998,74.459c0,72.785-59.215,132-132,132c-39.168,0-75.94-17.315-100.904-46.909
	c7.612-2.197,15.024-4.988,22.174-8.332c13.05,13.381,29.225,23.225,47.107,28.584c0.957,0.287,1.924,0.423,2.875,0.423
	c4.302,0,8.277-2.799,9.575-7.132c1.585-5.29-1.418-10.864-6.708-12.45c-12.861-3.854-24.649-10.549-34.571-19.558
	c12.31-7.973,23.507-17.737,33.157-29.058C291.121,250.577,304,215.582,304,179.479c0-9.864-0.956-19.508-2.759-28.854
	c46.74,3.201,83.791,42.244,83.791,89.782c0,39.455-26.367,74.913-64.12,86.226c-5.291,1.585-8.294,7.159-6.708,12.45
	c1.298,4.333,5.272,7.132,9.575,7.132c0.95,0,1.917-0.137,2.875-0.423c22.195-6.651,42.149-20.544,56.188-39.121
	c14.518-19.21,22.191-42.124,22.191-66.263c0-60.373-48.891-109.535-109.159-109.99c-2.567-7.507-5.711-14.747-9.37-21.676
	c2.839-0.181,5.686-0.294,8.529-0.294c28.261,0,55.215,8.808,77.947,25.471c3.98,2.917,9.493,2.495,12.983-0.994l49.701-49.701
	c2.86-2.86,3.715-7.162,2.167-10.898c-1.548-3.737-5.194-6.173-9.239-6.173H394V46.521h98V144.5z"/>
<path d="M81.145,118.911c2.586,0,5.169-0.997,7.124-2.98c0.034-0.035,0.076-0.078,0.104-0.106
	c3.845-3.965,3.747-10.296-0.218-14.141c-3.943-3.822-10.227-3.748-14.078,0.154c-0.036,0.036-0.081,0.082-0.11,0.112
	c-3.845,3.965-3.747,10.296,0.218,14.141C76.127,117.973,78.637,118.911,81.145,118.911z"/>
<path d="M262,179.479c0-60.654-49.346-110-110-110c-16.378,0-32.142,3.516-46.854,10.451c-4.996,2.355-7.137,8.313-4.782,13.309
	c2.355,4.995,8.313,7.136,13.309,4.782c12.025-5.668,24.919-8.542,38.327-8.542c23.235,0,44.441,8.851,60.426,23.358
	c-43.056,27.907-69.395,75.872-69.395,127.611c0,9.708,0.935,19.354,2.749,28.812C99.045,266.054,62,227.014,62,179.479
	c0-12.655,2.571-24.886,7.641-36.353c2.233-5.051-0.051-10.957-5.102-13.19s-10.957,0.051-13.19,5.102
	C45.146,149.069,42,164.021,42,179.479c0,60.654,49.346,110,110,110S262,240.133,262,179.479z M225.813,128.048
	c4.189,5.994,7.666,12.519,10.311,19.452c-31.612,20.095-51.093,55.333-51.093,92.907c0,7.374,0.745,14.713,2.193,21.888
	c-6.697,2.859-13.808,4.928-21.216,6.091c-1.967-9.138-2.978-18.503-2.978-27.939C163.031,194.521,186.938,152.028,225.813,128.048z
	 M205.728,251.638c-0.462-3.714-0.697-7.466-0.697-11.231c0-28.479,13.686-55.314,36.266-72.187
	c0.462,3.689,0.703,7.446,0.703,11.258C242,208.982,227.729,235.214,205.728,251.638z"/>
<g>
</g>
<g>
</g>
<g>
</g>
<g>
</g>
<g>
</g>
<g>
</g>
<g>
</g>
<g>
</g>
<g>
</g>
<g>
</g>
<g>
</g>
<g>
</g>
<g>
</g>
<g>
</g>
<g>
</g>
</svg>
